<?xml version="1.0" encoding="utf-8"?><!-- Uploaded to: SVG Repo, www.svgrepo.com, Generator: SVG Repo Mixer Tools -->
<svg fill="#000000" width="32px" height="32px" viewBox="0 0 24 24" id="money-dollar-coin" data-name="Flat Color" xmlns="http://www.w3.org/2000/svg" class="icon flat-color"><circle id="primary" cx="12" cy="12" r="10" style="fill: rgb(0, 0, 0);"></circle><path id="secondary" d="M12.5,11h-1a.5.5,0,0,1,0-1H14a1,1,0,0,0,0-2H13a1,1,0,0,0-2,0v.05A2.5,2.5,0,0,0,11.5,13h1a.5.5,0,0,1,0,1H10a1,1,0,0,0,0,2h1a1,1,0,0,0,2,0V16A2.5,2.5,0,0,0,12.5,11Z" style="fill: rgb(44, 169, 188);"></path></svg>